<?xml version="1.0" encoding="iso-8859-1"?>
<!-- Generator: Adobe Illustrator 16.0.0, SVG Export Plug-In . SVG Version: 6.00 Build 0)  -->
<!DOCTYPE svg PUBLIC "-//W3C//DTD SVG 1.1//EN" "http://www.w3.org/Graphics/SVG/1.1/DTD/svg11.dtd">
<svg version="1.1" id="Ebene_1" xmlns="http://www.w3.org/2000/svg" xmlns:xlink="http://www.w3.org/1999/xlink" x="0px" y="0px"
	 width="297.75px" height="141.75px" viewBox="0 0 297.75 141.75" style="enable-background:new 0 0 297.75 141.75;"
	 xml:space="preserve">
<g>
	<path d="M91,51c0.5,1,3,5.25,7.75,5.25c2.25,0,6-0.75,8.5-5.5c1.25-2.5,2-5,2-10.75c0-5-0.5-10-4.25-13.25
		c-0.75-0.75-2.75-2.25-5.75-2.25c-2.75,0-4.5,1.25-5.25,2c-5.5,4.25-5,13.25-5,14.5C89.25,44.5,89.5,48.25,91,51"/>
	<path d="M90.25,0c0,21.5,0,21.5,0,21.5c5-4.75,8.75-8,16-8c4.5,0,8,1.5,9.5,2.5c5,2.75,12.5,9.5,12.5,23.75c0,2.75-0.25,11-4.75,18
		c-3.75,5.75-10.5,9.75-18,9.75c-1,0-3-0.25-5.5-0.75c-4.75-1.5-7-4-10.5-8c-0.25,7.5-0.25,7.5-0.25,7.5C70.5,66,70.5,66,70.5,66
		c0.5-8.25,0.75-17,0.75-25.5c0-6,0-12.25,0-18.25c0-7.5,0-14.75,0-22.25C0,0,0,0,0,0c0,141.75,0,141.75,0,141.75
		c141.75,0,141.75,0,141.75,0c0-141.75,0-141.75,0-141.75C90.25,0,90.25,0,90.25,0"/>
	<path style="fill:#FFFFFF;" d="M71.25,22.25c0,6,0,12.25,0,18.25C71.25,49,71,57.75,70.5,66c18.75,0.25,18.75,0.25,18.75,0.25
		c0.25-7.5,0.25-7.5,0.25-7.5c3.5,4,5.75,6.5,10.5,8c2.5,0.5,4.5,0.75,5.5,0.75c7.5,0,14.25-4,18-9.75c4.5-7,4.75-15.25,4.75-18
		c0-14.25-7.5-21-12.5-23.75c-1.5-1-5-2.5-9.5-2.5c-7.25,0-11,3.25-16,8c0-21.5,0-21.5,0-21.5c-19,0-19,0-19,0
		C71.25,7.5,71.25,14.75,71.25,22.25L71.25,22.25z M94,26.5c0.75-0.75,2.5-2,5.25-2c3,0,5,1.5,5.75,2.25
		C108.75,30,109.25,35,109.25,40c0,5.75-0.75,8.25-2,10.75c-2.5,4.75-6.25,5.5-8.5,5.5C94,56.25,91.5,52,91,51
		c-1.5-2.75-1.75-6.5-2-10C89,39.75,88.5,30.75,94,26.5"/>
	<path style="fill:#E30613;" d="M139.5,111.5c-1-2.75-2-5.75-2.75-8.75c-2-5.5-3.5-11.25-5.25-17c-25.5,0-25.5,0-25.5,0
		c-2.5,7.75-5.25,15.5-7.75,23.5c-2,6.25-3.75,13-5.5,19.5c-4-19.25-5.5-24.25-11.75-43c-24.5,0-24.5,0-24.5,0
		c19.75,56,19.75,56,19.75,56c28.75,0,28.75,0,28.75,0c6-16,6-16,6-16c3.5-10.5,4.25-13,6.25-23.75c0.75,4.75,1.75,9.5,3,14.25
		c1.25,4.25,2.75,8.5,4.25,12.75c1.25,4.25,2.75,8.5,4,12.75c13.25,0,13.25,0,13.25,0c0-23.25,0-23.25,0-23.25
		C141,116,140.5,114,139.5,111.5"/>
	<path style="fill:#B2B2B2;" d="M33.25,60.25c-11-3-11-3-11-3c-5.5-1.5-8.5-2.25-8.5-6.5c0-3.75,3.75-6,8.5-6
		c2.75,0,8.25,0.5,8.75,7.25c16.5,0,16.5,0,16.5,0C47,39.75,36.75,33.75,24,33.75c-11,0-19.75,3.5-24,9.75c0,19.25,0,19.25,0,19.25
		c3.5,4.75,9.5,6.5,12.75,7.5c11.25,3,11.25,3,11.25,3c7,2,8.5,4.25,8.5,7c0,3.75-3,7.25-9.5,7.25c-7.5,0-10-4.5-10.25-8.25
		C0,79.25,0,79.25,0,79.25C0,91,0,91,0,91s0.25,0,0.25,0.25C6,97,13.5,98.75,21.5,98.75c19,0,28.25-10.5,28.25-21.25
		C49.75,69,44.5,63.25,33.25,60.25"/>
	<polygon style="fill-rule:evenodd;clip-rule:evenodd;" points="156,0 297.75,0 297.75,141.75 156,141.75 156,0 	"/>
	<g>
		<path style="fill:#FFFFFF;" d="M163.123,16.205c0-0.018,0-0.112,0-0.28c0-0.187-0.005-0.406-0.014-0.658
			c-0.01-0.252-0.02-0.527-0.028-0.826c-0.01-0.299-0.023-0.569-0.042-0.812h3.976l0.112,2.128c0.094-0.168,0.242-0.387,0.448-0.658
			c0.205-0.271,0.485-0.541,0.84-0.812c0.354-0.271,0.803-0.504,1.344-0.7c0.541-0.196,1.194-0.294,1.96-0.294
			c0.69,0,1.288,0.094,1.792,0.28s0.929,0.416,1.274,0.686c0.345,0.271,0.616,0.56,0.812,0.868c0.196,0.308,0.341,0.584,0.435,0.826
			c0.074,0.224,0.14,0.444,0.196,0.658c0.056,0.215,0.098,0.476,0.126,0.784c0.027,0.308,0.046,0.686,0.056,1.134
			c0.009,0.448,0.014,0.999,0.014,1.652v7.644h-4.228v-8.792c0-0.298-0.01-0.574-0.028-0.826s-0.084-0.49-0.196-0.714
			c-0.149-0.317-0.388-0.597-0.714-0.84s-0.761-0.364-1.302-0.364c-0.448,0-0.863,0.098-1.246,0.294
			c-0.383,0.196-0.686,0.462-0.91,0.798c-0.131,0.187-0.247,0.458-0.35,0.812s-0.154,0.803-0.154,1.344v8.288h-4.172V16.205z"/>
		<path style="fill:#FFFFFF;" d="M185.158,21.805c0,0.224,0.015,0.551,0.042,0.98c0.028,0.43,0.136,0.85,0.322,1.26
			s0.472,0.77,0.854,1.078c0.382,0.308,0.938,0.462,1.666,0.462c0.521,0,1.012-0.13,1.47-0.392c0.457-0.261,0.788-0.784,0.994-1.568
			h3.779c-0.019,0.168-0.042,0.369-0.069,0.602c-0.028,0.234-0.089,0.481-0.183,0.742c-0.094,0.262-0.229,0.542-0.405,0.84
			c-0.178,0.299-0.406,0.598-0.687,0.896c-0.522,0.542-1.218,0.952-2.086,1.232c-0.868,0.28-1.825,0.42-2.87,0.42
			c-0.299,0-0.658-0.019-1.078-0.056c-0.42-0.038-0.859-0.122-1.316-0.252c-0.458-0.131-0.913-0.308-1.364-0.532
			s-0.864-0.532-1.24-0.924c-0.658-0.672-1.128-1.475-1.41-2.408c-0.282-0.933-0.423-1.969-0.423-3.108
			c0-0.578,0.042-1.176,0.127-1.792c0.085-0.616,0.235-1.218,0.451-1.806c0.216-0.588,0.517-1.148,0.902-1.68
			c0.385-0.532,0.879-1.003,1.48-1.414c0.545-0.373,1.149-0.663,1.813-0.868c0.663-0.205,1.387-0.308,2.171-0.308
			c0.504,0,1.026,0.056,1.568,0.168c0.541,0.112,1.063,0.299,1.567,0.56c0.504,0.262,0.98,0.612,1.428,1.05
			c0.448,0.438,0.831,0.985,1.148,1.638c0.242,0.486,0.425,0.971,0.546,1.456c0.121,0.486,0.205,0.957,0.252,1.414
			c0.047,0.458,0.07,0.882,0.07,1.274s-0.01,0.738-0.028,1.036H185.158z M190.423,19.201c0-0.168-0.015-0.424-0.042-0.77
			c-0.028-0.345-0.122-0.695-0.28-1.05c-0.159-0.354-0.406-0.667-0.742-0.938s-0.803-0.406-1.399-0.406
			c-0.448,0-0.836,0.089-1.162,0.266c-0.327,0.178-0.598,0.411-0.813,0.7s-0.378,0.625-0.49,1.008
			c-0.111,0.383-0.178,0.78-0.195,1.19H190.423z"/>
		<path style="fill:#FFFFFF;" d="M203.106,13.685v8.428c0,0.317,0.01,0.653,0.028,1.008c0.019,0.355,0.098,0.691,0.238,1.008
			c0.14,0.317,0.358,0.579,0.657,0.784c0.299,0.206,0.729,0.308,1.288,0.308c0.672,0,1.186-0.116,1.54-0.35
			c0.354-0.233,0.616-0.55,0.784-0.952s0.266-0.868,0.294-1.4c0.028-0.532,0.042-1.096,0.042-1.694v-7.14h4.256v9.324
			c0.019,0.766,0.032,1.377,0.042,1.834c0.01,0.458,0.019,0.812,0.028,1.064c0.009,0.252,0.014,0.443,0.014,0.574
			c0,0.112,0,0.215,0,0.308c0.019,0.206,0.032,0.378,0.042,0.518s0.032,0.313,0.07,0.518h-4.032l-0.14-1.876
			c-0.112,0.149-0.267,0.35-0.462,0.602c-0.196,0.252-0.458,0.5-0.784,0.742c-0.327,0.243-0.729,0.453-1.204,0.63
			s-1.05,0.266-1.722,0.266c-0.952,0-1.802-0.187-2.549-0.56c-0.746-0.374-1.315-0.821-1.708-1.344
			c-0.224-0.28-0.401-0.606-0.531-0.98c-0.131-0.373-0.225-0.737-0.28-1.092s-0.089-0.69-0.098-1.008
			c-0.01-0.317-0.015-0.56-0.015-0.728v-8.792H203.106z"/>
		<path style="fill:#FFFFFF;" d="M221.139,21.805c0,0.224,0.015,0.551,0.042,0.98c0.028,0.43,0.136,0.85,0.322,1.26
			s0.472,0.77,0.854,1.078c0.382,0.308,0.938,0.462,1.666,0.462c0.521,0,1.012-0.13,1.47-0.392c0.457-0.261,0.788-0.784,0.994-1.568
			h3.779c-0.019,0.168-0.042,0.369-0.069,0.602c-0.028,0.234-0.089,0.481-0.183,0.742c-0.094,0.262-0.229,0.542-0.405,0.84
			c-0.178,0.299-0.406,0.598-0.687,0.896c-0.522,0.542-1.218,0.952-2.086,1.232c-0.868,0.28-1.825,0.42-2.87,0.42
			c-0.299,0-0.658-0.019-1.078-0.056c-0.42-0.038-0.859-0.122-1.316-0.252c-0.458-0.131-0.913-0.308-1.364-0.532
			s-0.864-0.532-1.24-0.924c-0.658-0.672-1.128-1.475-1.41-2.408c-0.282-0.933-0.423-1.969-0.423-3.108
			c0-0.578,0.042-1.176,0.127-1.792c0.085-0.616,0.235-1.218,0.451-1.806c0.216-0.588,0.517-1.148,0.902-1.68
			c0.385-0.532,0.879-1.003,1.48-1.414c0.545-0.373,1.149-0.663,1.813-0.868c0.663-0.205,1.387-0.308,2.171-0.308
			c0.504,0,1.026,0.056,1.568,0.168c0.541,0.112,1.063,0.299,1.567,0.56c0.504,0.262,0.98,0.612,1.428,1.05
			c0.448,0.438,0.831,0.985,1.148,1.638c0.242,0.486,0.425,0.971,0.546,1.456c0.121,0.486,0.205,0.957,0.252,1.414
			c0.047,0.458,0.07,0.882,0.07,1.274s-0.01,0.738-0.028,1.036H221.139z M226.403,19.201c0-0.168-0.015-0.424-0.042-0.77
			c-0.028-0.345-0.122-0.695-0.28-1.05c-0.159-0.354-0.406-0.667-0.742-0.938s-0.803-0.406-1.399-0.406
			c-0.448,0-0.836,0.089-1.162,0.266c-0.327,0.178-0.598,0.411-0.813,0.7s-0.378,0.625-0.49,1.008
			c-0.111,0.383-0.178,0.78-0.195,1.19H226.403z"/>
	</g>
	<g>
		<path style="fill:#FFFFFF;" d="M163.151,45.361c0-0.448-0.015-0.891-0.042-1.33c-0.028-0.438-0.062-0.882-0.099-1.33h3.978
			l0.139,1.82c0.111-0.149,0.271-0.345,0.475-0.588c0.205-0.242,0.475-0.476,0.81-0.7s0.754-0.42,1.257-0.588
			c0.502-0.168,1.107-0.252,1.814-0.252c0.801,0,1.471,0.108,2.011,0.322c0.539,0.215,0.977,0.467,1.313,0.756
			c0.335,0.29,0.586,0.584,0.753,0.882c0.168,0.299,0.289,0.532,0.363,0.7c0.298-0.56,0.633-1.012,1.005-1.358
			c0.372-0.345,0.758-0.611,1.158-0.798c0.399-0.187,0.8-0.313,1.2-0.378c0.399-0.065,0.786-0.098,1.158-0.098
			c0.707,0,1.315,0.094,1.828,0.28c0.512,0.187,0.935,0.402,1.27,0.644c0.335,0.243,0.6,0.495,0.796,0.756
			c0.194,0.262,0.33,0.458,0.404,0.588c0.186,0.317,0.325,0.653,0.419,1.008c0.093,0.355,0.162,0.714,0.209,1.078
			c0.046,0.364,0.07,0.733,0.07,1.106c0,0.355,0,0.682,0,0.98v7.98h-4.145v-8.316c0-0.373-0.023-0.751-0.07-1.134
			c-0.046-0.382-0.149-0.728-0.308-1.036c-0.159-0.308-0.396-0.555-0.714-0.742c-0.317-0.187-0.747-0.28-1.288-0.28
			c-0.616,0-1.097,0.131-1.442,0.392c-0.345,0.262-0.602,0.602-0.77,1.022c-0.168,0.42-0.266,0.896-0.294,1.428
			s-0.042,1.06-0.042,1.582v7.084h-4.145v-8.4c0-0.28-0.014-0.597-0.042-0.952c-0.027-0.354-0.116-0.69-0.266-1.008
			s-0.378-0.588-0.686-0.812c-0.309-0.224-0.752-0.336-1.33-0.336c-0.654,0-1.158,0.122-1.513,0.364
			c-0.354,0.243-0.611,0.532-0.77,0.868c-0.159,0.336-0.252,0.686-0.28,1.05c-0.028,0.364-0.042,0.667-0.042,0.91v8.316h-4.144
			V45.361z"/>
		<path style="fill:#FFFFFF;" d="M194.427,50.821c0,0.224,0.015,0.551,0.042,0.98c0.028,0.43,0.136,0.85,0.322,1.26
			s0.472,0.77,0.854,1.078c0.382,0.308,0.938,0.462,1.666,0.462c0.521,0,1.012-0.13,1.47-0.392c0.457-0.261,0.788-0.784,0.994-1.568
			h3.779c-0.019,0.168-0.042,0.369-0.069,0.602c-0.028,0.234-0.089,0.481-0.183,0.742c-0.094,0.262-0.229,0.542-0.405,0.84
			c-0.178,0.299-0.406,0.598-0.687,0.896c-0.522,0.542-1.218,0.952-2.086,1.232c-0.868,0.28-1.825,0.42-2.87,0.42
			c-0.299,0-0.658-0.019-1.078-0.056c-0.42-0.038-0.859-0.122-1.316-0.252c-0.458-0.131-0.913-0.308-1.364-0.532
			s-0.864-0.532-1.24-0.924c-0.658-0.672-1.128-1.475-1.41-2.408c-0.282-0.933-0.423-1.969-0.423-3.108
			c0-0.578,0.042-1.176,0.127-1.792c0.085-0.616,0.235-1.218,0.451-1.806c0.216-0.588,0.517-1.148,0.902-1.68
			c0.385-0.532,0.879-1.003,1.48-1.414c0.545-0.373,1.149-0.663,1.813-0.868c0.663-0.205,1.387-0.308,2.171-0.308
			c0.504,0,1.026,0.056,1.568,0.168c0.541,0.112,1.063,0.299,1.567,0.56c0.504,0.262,0.98,0.612,1.428,1.05
			c0.448,0.438,0.831,0.985,1.148,1.638c0.242,0.486,0.425,0.971,0.546,1.456c0.121,0.486,0.205,0.957,0.252,1.414
			c0.047,0.458,0.07,0.882,0.07,1.274s-0.01,0.738-0.028,1.036H194.427z M199.691,48.217c0-0.168-0.015-0.424-0.042-0.77
			c-0.028-0.345-0.122-0.695-0.28-1.05c-0.159-0.354-0.406-0.667-0.742-0.938s-0.803-0.406-1.399-0.406
			c-0.448,0-0.836,0.089-1.162,0.266c-0.327,0.178-0.598,0.411-0.813,0.7s-0.378,0.625-0.49,1.008
			c-0.111,0.383-0.178,0.78-0.195,1.19H199.691z"/>
		<path style="fill:#FFFFFF;" d="M217.667,36.625h4.145v17.92c0,0.43,0.009,0.854,0.027,1.274s0.047,0.761,0.084,1.022h-4.172
			l-0.112-2.044c-0.149,0.262-0.317,0.523-0.504,0.784s-0.494,0.532-0.924,0.812c-0.522,0.336-1.031,0.542-1.525,0.616
			c-0.495,0.074-0.901,0.112-1.219,0.112c-1.903,0-3.384-0.616-4.438-1.848c-1.055-1.232-1.582-2.958-1.582-5.18
			c0-1.176,0.154-2.23,0.462-3.164c0.308-0.933,0.732-1.726,1.274-2.38c0.541-0.653,1.194-1.157,1.96-1.512
			c0.765-0.354,1.614-0.532,2.548-0.532c0.634,0,1.18,0.08,1.638,0.238c0.457,0.159,0.845,0.341,1.162,0.546s0.569,0.416,0.756,0.63
			c0.187,0.215,0.326,0.388,0.42,0.518V36.625z M211.647,49.981c0,0.598,0.051,1.162,0.153,1.694s0.267,1.003,0.49,1.414
			s0.519,0.738,0.882,0.98c0.364,0.243,0.808,0.364,1.33,0.364c0.598,0,1.129-0.158,1.596-0.476s0.813-0.69,1.036-1.12
			c0.317-0.597,0.509-1.213,0.574-1.848c0.065-0.634,0.098-1.129,0.098-1.484c0-1.4-0.275-2.464-0.825-3.192
			c-0.551-0.728-1.303-1.092-2.254-1.092c-0.691,0-1.242,0.182-1.652,0.546c-0.411,0.364-0.719,0.798-0.924,1.302
			c-0.206,0.504-0.341,1.027-0.406,1.568C211.68,49.178,211.647,49.626,211.647,49.981z"/>
		<path style="fill:#FFFFFF;" d="M226.906,36.625h4.424v3.612h-4.424V36.625z M227.047,42.673h4.144v14.168h-4.144V42.673z"/>
		<path style="fill:#FFFFFF;" d="M239.898,50.821c0,0.224,0.015,0.551,0.042,0.98c0.028,0.43,0.136,0.85,0.322,1.26
			s0.472,0.77,0.854,1.078c0.382,0.308,0.938,0.462,1.666,0.462c0.521,0,1.012-0.13,1.47-0.392c0.457-0.261,0.788-0.784,0.994-1.568
			h3.779c-0.019,0.168-0.042,0.369-0.069,0.602c-0.028,0.234-0.089,0.481-0.183,0.742c-0.094,0.262-0.229,0.542-0.405,0.84
			c-0.178,0.299-0.406,0.598-0.687,0.896c-0.522,0.542-1.218,0.952-2.086,1.232c-0.868,0.28-1.825,0.42-2.87,0.42
			c-0.299,0-0.658-0.019-1.078-0.056c-0.42-0.038-0.859-0.122-1.316-0.252c-0.458-0.131-0.913-0.308-1.364-0.532
			s-0.864-0.532-1.24-0.924c-0.658-0.672-1.128-1.475-1.41-2.408c-0.282-0.933-0.423-1.969-0.423-3.108
			c0-0.578,0.042-1.176,0.127-1.792c0.085-0.616,0.235-1.218,0.451-1.806c0.216-0.588,0.517-1.148,0.902-1.68
			c0.385-0.532,0.879-1.003,1.48-1.414c0.545-0.373,1.149-0.663,1.813-0.868c0.663-0.205,1.387-0.308,2.171-0.308
			c0.504,0,1.026,0.056,1.568,0.168c0.541,0.112,1.063,0.299,1.567,0.56c0.504,0.262,0.98,0.612,1.428,1.05
			c0.448,0.438,0.831,0.985,1.148,1.638c0.242,0.486,0.425,0.971,0.546,1.456c0.121,0.486,0.205,0.957,0.252,1.414
			c0.047,0.458,0.07,0.882,0.07,1.274s-0.01,0.738-0.028,1.036H239.898z M245.163,48.217c0-0.168-0.015-0.424-0.042-0.77
			c-0.028-0.345-0.122-0.695-0.28-1.05c-0.159-0.354-0.406-0.667-0.742-0.938s-0.803-0.406-1.399-0.406
			c-0.448,0-0.836,0.089-1.162,0.266c-0.327,0.178-0.598,0.411-0.813,0.7s-0.378,0.625-0.49,1.008
			c-0.111,0.383-0.178,0.78-0.195,1.19H245.163z"/>
		<path style="fill:#FFFFFF;" d="M253.843,45.221c0-0.018,0-0.112,0-0.28c0-0.187-0.005-0.406-0.014-0.658
			c-0.01-0.252-0.02-0.527-0.028-0.826c-0.01-0.299-0.023-0.569-0.042-0.812h3.976l0.112,2.128c0.094-0.168,0.242-0.387,0.448-0.658
			c0.205-0.271,0.485-0.541,0.84-0.812c0.354-0.271,0.803-0.504,1.344-0.7c0.541-0.196,1.194-0.294,1.96-0.294
			c0.69,0,1.288,0.094,1.792,0.28s0.929,0.416,1.274,0.686c0.345,0.271,0.616,0.56,0.812,0.868c0.196,0.308,0.341,0.584,0.435,0.826
			c0.074,0.224,0.14,0.444,0.196,0.658c0.056,0.215,0.098,0.476,0.126,0.784c0.027,0.308,0.046,0.686,0.056,1.134
			c0.009,0.448,0.014,0.999,0.014,1.652v7.644h-4.228v-8.792c0-0.298-0.01-0.574-0.028-0.826s-0.084-0.49-0.196-0.714
			c-0.149-0.317-0.388-0.597-0.714-0.84s-0.761-0.364-1.302-0.364c-0.448,0-0.863,0.098-1.246,0.294
			c-0.383,0.196-0.686,0.462-0.91,0.798c-0.131,0.187-0.247,0.458-0.35,0.812s-0.154,0.803-0.154,1.344v8.288h-4.172V45.221z"/>
	</g>
</g>
</svg>
